<svg width="200" height="200" xmlns="http://www.w3.org/2000/svg"><defs><linearGradient x1="5.205%" y1="62.5%" x2="100%" y2="52.155%" id="linearGradient-1"><stop stop-color="#F2B3C4" offset="0%"/><stop stop-color="#6DAB49" offset="100%"/></linearGradient><linearGradient x1="100%" y1="62.5%" x2="0%" y2="52.791%" id="linearGradient-2"><stop stop-color="#963197" offset="0%"/><stop stop-color="#635EF2" offset="100%"/></linearGradient><linearGradient x1="0%" y1="61.161%" x2="100%" y2="51.324%" id="linearGradient-3"><stop stop-color="#669742" offset="0%"/><stop stop-color="#F20805" offset="100%"/></linearGradient><linearGradient x1="96.58%" y1="60.936%" x2="0%" y2="51.725%" id="linearGradient-4"><stop stop-color="#D7FCB9" offset="0%"/><stop stop-color="#F2B703" offset="100%"/></linearGradient><linearGradient x1="100%" y1="3.17%" x2="0%" y2="43.318%" id="linearGradient-5"><stop stop-color="#F2B3C4" offset="0%"/><stop stop-color="#2DA600" offset="100%"/></linearGradient><linearGradient x1="3.294%" y1="100%" x2="100%" y2="50%" id="linearGradient-6"><stop stop-color="#F2B703" offset="0%"/><stop stop-color="#A949AB" offset="100%"/></linearGradient></defs><g id="Artboard" stroke="none" stroke-width="1" fill="none" fill-rule="evenodd"><path id="Triangle" fill="url('#linearGradient-1')" transform="rotate(-90 25 150)" d="M75 125v50H-25z"/><path id="Triangle-Copy-3" fill="url('#linearGradient-2')" transform="rotate(-90 25 50)" d="M-25 25 75 75H-25z"/><path id="Triangle-Copy" fill="url('#linearGradient-3')" transform="rotate(90 175 50)" d="M225 25v50H125z"/><path id="Triangle-Copy-5" fill="url('#linearGradient-4')" transform="rotate(90 175 150)" d="m125 125 100 50H125z"/><path id="Triangle" fill="url('#linearGradient-5')" transform="rotate(-90 99.593 50.407)" d="m149.593.407-100 100 .22-100z"/><path id="Triangle-Copy-2" fill="url('#linearGradient-6')" transform="rotate(-90 100.22 150.22)" d="M150.22 100.22v100h-100z"/></g></svg>